<svg xmlns="http://www.w3.org/2000/svg" viewBox="0 0 64 80" x="0px" y="0px"><title>Artboard 25</title>
  <g data-name="Layer 28">
    <path
      d="M32.69,3.47,32,2.81l-.69.66c-.81.78-19.85,19.23-19.85,37.19a20.54,20.54,0,0,0,41.08,0C52.54,22.7,33.5,4.25,32.69,3.47ZM32,59.19A18.56,18.56,0,0,1,13.46,40.66c0-15.23,15.1-31.53,18.54-35,3.44,3.52,18.54,19.81,18.54,35.05A18.56,18.56,0,0,1,32,59.19Z"/>
    <path d="M41,35.19H23a5,5,0,0,0,0,10H41a5,5,0,0,0,0-10Zm0,8H23a3,3,0,0,1,0-6H41a3,3,0,0,1,0,6Z"/>
  </g>
</svg>
