<svg xmlns="http://www.w3.org/2000/svg" viewBox="0 0 64 80" x="0px" y="0px" class="form_rhesus-factor"><title>Artboard 21</title>
  <g data-name="Layer 23">
    <path
      d="M32.69,3.28,32,2.61l-.69.67c-.81.78-19.84,19.23-19.84,37.19a20.53,20.53,0,0,0,41.06,0C52.53,22.51,33.5,4.06,32.69,3.28ZM32,59A18.55,18.55,0,0,1,13.47,40.47c0-15.23,15.09-31.53,18.53-35,3.44,3.52,18.53,19.82,18.53,35.05A18.55,18.55,0,0,1,32,59Z"/>
    <path
      d="M41,35H37V31a5,5,0,0,0-10,0v4H23a5,5,0,0,0,0,10h4v4a5,5,0,0,0,10,0V45h4a5,5,0,0,0,0-10Zm2.13,7.12A3,3,0,0,1,41,43H36a1,1,0,0,0-1,1v5a3,3,0,1,1-6,0V44a1,1,0,0,0-1-1H23a3,3,0,1,1,0-6h5a1,1,0,0,0,1-1V31a3,3,0,1,1,6,0v5a1,1,0,0,0,1,1h5a3,3,0,0,1,2.13,5.12Z"/>
  </g>
</svg>
