<svg xmlns="http://www.w3.org/2000/svg" xmlns:xlink="http://www.w3.org/1999/xlink" version="1.1" x="0px" y="0px"
     viewBox="0 0 54 67.5" style="enable-background:new 0 0 54 54;" xml:space="preserve"><g><path d="M27,26c4.5,0,8.1-3.6,8.1-8.1c0-4.5-8.1-16.5-8.1-16.5s-8.1,12-8.1,16.5C18.9,22.4,22.5,26,27,26z M23.1,16.9   c0.6,0,1.1,0.5,1.1,1.1c0,1.6,1.3,2.8,2.8,2.8c0.6,0,1.1,0.5,1.1,1.1s-0.5,1.1-1.1,1.1c-2.7,0-4.9-2.2-4.9-4.9   C22.1,17.4,22.5,16.9,23.1,16.9z" fill="#e50000"/><polygon
  points="0,37.7 4.7,52.5 10.2,50.8 4.8,35.5" /><path
  d="M53.5,39.8c-0.7-0.9-1.9-1.2-3-0.8l-8.8,3.4c-3.6,1.4-7.5,1.7-11.3,0.8l-5.1-1.2c-1.2-0.3-2-1.4-1.7-2.6   c0.2-0.9,1.1-1.6,2-1.6l7-0.1c1.1,0.2,2.2-0.2,2.7-1.1c0.8-1.4,0.1-3.2-1.5-3.6l-7.1-1.2c-4.3-0.7-8.7-0.2-12.7,1.6l-6.7,3   l4.4,12.4c1.9-0.5,4-0.5,5.9-0.2l10,1.8c3.7,0.7,7.4,0.2,10.8-1.2l13.9-5.8C53.9,43,54.5,41.2,53.5,39.8z" /></g>
</svg>
