<svg xmlns="http://www.w3.org/2000/svg" xmlns:xlink="http://www.w3.org/1999/xlink" version="1.1" x="0px" y="0px"
     viewBox="0 0 100 125" style="enable-background:new 0 0 100 100;" xml:space="preserve"><g><path d="M58.916172,71.9752579h-8.0821953h-3.2252388c-2.657505,0-4.8192444,2.1617355-4.8192444,4.8187485   c0,2.655899,2.15839,4.8156509,4.8130417,4.8191223c0.3414307,0.0001221,0.674366,0.000618,1.0225601,0.000618H58.916172   c2.8932343,0,4.8197403-0.8198318,4.8197403-4.8197403C63.7359123,72.7950897,61.8094063,71.9752579,58.916172,71.9752579z"/><path
  d="M46.1432648,70.104332c-1.3270187-1.2504654-2.1612396-3.0185394-2.1612396-4.9815216   c0-3.1957092,2.2030487-5.8800125,5.1681786-6.6334686c-1.5847015-1.4576607-2.4900169-3.643219-2.1526794-6.0272827   c0.4829941-3.4133224,3.5657997-5.8619003,7.0133018-5.8619003h2.4905128h10.7402h14.2793884   c1.7115021-2.5179329,3.3267822-4.2383652,3.4700851-4.3889809c0.1915588-0.2004929,0.4575577-0.3146324,0.735466-0.3146324   h0.0009918c0.2789001,0,0.544899,0.1151314,0.7364578,0.3166161c0.1319427,0.1394501,1.5213699,1.6253967,3.0807648,3.8376312   c0.0046463-0.0024834,0.0072556-0.0069504,0.0119705-0.0094299c1.377449-0.7069321,2.0313416-2.1468506,2.0019989-4.4053574   c-0.0338669-2.6032906-2.215271-4.6743355-4.8188095-4.6743355H43.945797   c0.3252411,3.0871506,0.7058754,11.4498596-3.8182755,16.7976303c-2.5741348,3.0431061-6.2921638,4.5855026-11.0493736,4.5855026   c-0.5612774,0-1.0163555-0.4545822-1.0163555-1.0163536c0-0.5617752,0.4550781-1.0163536,1.0163555-1.0163536   c4.1289368,0,7.3229065-1.2992287,9.4935799-3.8609543c4.9055939-5.7904396,3.2326775-16.2328796,3.2153091-16.338089   c-0.0061417-0.0367241-0.000061-0.0728264-0.0021095-0.1094246c-0.0012398-0.0203476-0.0117874-0.0377159-0.0117874-0.0583115   c0-0.0169983,0.008873-0.0311432,0.0096779-0.0478897c0.0053368-0.1106682,0.0249367-0.2178612,0.0644531-0.3193474   c0.0042801-0.0109177,0.0046539-0.0230789,0.009304-0.0338707c0.0457191-0.1064491,0.1135826-0.2011108,0.1934814-0.2869682   c0.0241928-0.0259285,0.0514908-0.0461502,0.0782242-0.0694771c0.0345535-0.0301476,0.0634003-0.065506,0.102417-0.0910645   c6.3546944-4.1825333,9.8101997-8.1893902,9.9948082-11.587822c0.1230774-2.2828274-1.2550583-3.9205055-2.4331932-4.8921967   c-0.3851013-0.3186035-0.954319-0.3057003-1.3518295,0.0317612L19.4524994,43.2488708   c-0.1837425,0.1560745-0.4169254,0.2416801-0.6579876,0.2416801H10.673234c-1.5346422,0-2.7787204,1.2441406-2.7787204,2.7787209   v26.72966c0,1.534584,1.2440782,2.7787247,2.7787204,2.7787247h11.5489912c0.2761097,0,0.5383244,0.1159973,0.7330475,0.3116531   c4.5498962,4.5732193,10.842556,5.3588104,19.7620163,5.4942932c-1.2108307-1.2364502-1.9605026-2.9263611-1.9605026-4.7895966   C40.7567863,73.5196381,43.0675888,70.777771,46.1432648,70.104332z"/><path
  d="M63.3240128,60.3040619H53.77882h-2.9448433c-2.6575089,0-4.8192444,2.1617393-4.8192444,4.8187485   c0,2.6580048,2.1617355,4.8197403,4.8192444,4.8197403h8.0821953h4.4078407c3.2426071,0,4.8187485-1.5761414,4.8187485-4.8197403   C68.1427612,61.8802071,66.5666199,60.3040619,63.3240128,60.3040619z"/><path
  d="M85.7254868,44.4443779c-1.819313,2.1329536-6.3780212,8.0027924-6.3780212,13.2830696   c0,3.5175362,2.8614731,6.3790131,6.3790131,6.3790131c3.5175323,0,6.3790054-2.8614769,6.3790054-6.3790131   C92.105484,52.4650383,87.5447998,46.5822945,85.7254868,44.4443779z" fill="#e50000"/><path
  d="M67.241539,48.6328659h-10.7402H53.77882c-2.6570091,0-4.8187485,2.1617355-4.8187485,4.8187485   c0,2.6580048,2.1617393,4.8197403,4.8187485,4.8197403h9.5451927h3.9175262c3.2426071,0,4.8187485-1.5761414,4.8187485-4.8197403   C72.0602875,50.2090073,70.4841461,48.6328659,67.241539,48.6328659z"/></g>
</svg>
